# xmcd
#
# Track frame offsets:
#	150
#	7112
#	22562
#	35387
#	48814
#	65447
#	85115
#	98387
#	110462
#	122110
#	134990
#	148115
#	160565
#	179755
#	191332
#
# Disc length: 2785 seconds
#
# Revision: 1
# Processed by: cddbd v1.5.2PL0 Copyright (c) Steve Scherf et al.
# Submitted via: audiograbber 1.83.01
#
DISCID=bf0adf0f
DTITLE=Johnny Gimble and Texas Swing - Just For Fun
DYEAR=2002
DGENRE=Western Swing
TTITLE0=Barefoot Fiddler
TTITLE1=Daddy Blues
TTITLE2=Red Wing
TTITLE3=5' 2''
TTITLE4=Juniors Shadow
TTITLE5=Stardust
TTITLE6=Limehouse Blues
TTITLE7=Roses in Summer Rain
TTITLE8=Exactly Like You
TTITLE9=Down Yonder
TTITLE10=Poor Butterfly
TTITLE11=Back Up and Push
TTITLE12=Milk Cow Blues
TTITLE13=Beaumont Rag
TTITLE14=San Antonio Rose
EXTD=
EXTT0=
EXTT1=
EXTT2=
EXTT3=
EXTT4=
EXTT5=
EXTT6=
EXTT7=
EXTT8=
EXTT9=
EXTT10=
EXTT11=
EXTT12=
EXTT13=
EXTT14=
PLAYORDER=
